<svg width="14" height="9" viewBox="0 0 14 9" fill="none" xmlns="http://www.w3.org/2000/svg">
<path d="M13.2537 3.14167C13.3527 3.07708 13.5 3.1375 13.5 3.23958V7.5C13.5 8.05208 12.9541 8.5 12.2812 8.5H1.71875C1.0459 8.5 0.5 8.05208 0.5 7.5V3.24167C0.5 3.1375 0.644727 3.07917 0.746289 3.14375C1.31504 3.50625 2.06914 3.96667 4.65898 5.51042C5.19473 5.83125 6.09863 6.50625 7 6.50208C7.90645 6.50833 8.82812 5.81875 9.34355 5.51042C11.9334 3.96667 12.685 3.50417 13.2537 3.14167ZM7 5.83333C7.58906 5.84167 8.43711 5.225 8.86367 4.97083C12.233 2.96458 12.4895 2.78958 13.2664 2.28958C13.4137 2.19583 13.5 2.05 13.5 1.89583V1.5C13.5 0.947917 12.9541 0.5 12.2812 0.5H1.71875C1.0459 0.5 0.5 0.947917 0.5 1.5V1.89583C0.5 2.05 0.586328 2.19375 0.733594 2.28958C1.51055 2.7875 1.76699 2.96458 5.13633 4.97083C5.56289 5.225 6.41094 5.84167 7 5.83333Z" fill="white"/>
</svg>
